# xmcd
# 
# Track frame offsets:
#     150
#     32622
#     61662
#     90870
#     116062
#     143345
# 
# Disc length: 2324
# 
# Revision: 2
# Processed by: cddbd v1.5.2PL0 Copyright (c) Steve Scherf et al.
# Submitted via: BonkEnc v1.0.15
# 
DISCID=3b091206
DTITLE=Freddie Hubbard - Open Sesame
DYEAR=1960
DGENRE=Jazz
TTITLE0=Open Sesame
TTITLE1=But Beautiful
TTITLE2=Gypsy Blue
TTITLE3=All Or Nothing At All
TTITLE4=One Mint Julep
TTITLE5=Hub's Nub
EXTD=YEAR: 1960
EXTT0=
EXTT1=
EXTT2=
EXTT3=
EXTT4=
EXTT5=
PLAYORDER=
